<svg width="1024" height="1024" viewBox="0 0 1024 1024" xmlns="http://www.w3.org/2000/svg">
  <path d="M922.00,512.00 L921.94,607.49 L921.78,637.98 L921.49,660.13 L921.10,678.14 L920.59,693.58 L919.97,707.22 L919.24,719.51 L918.39,730.74 L917.43,741.12 L916.35,750.77 L915.16,759.81 L913.85,768.32 L912.43,776.35 L910.88,783.97 L909.22,791.20 L907.44,798.09 L905.53,804.67 L903.50,810.95 L901.35,816.96 L899.08,822.72 L896.67,828.24 L894.14,833.53 L891.47,838.61 L888.68,843.49 L885.74,848.17 L882.67,852.67 L879.45,856.99 L876.09,861.13 L872.59,865.11 L868.93,868.93 L865.11,872.59 L861.13,876.09 L856.99,879.45 L852.67,882.67 L848.17,885.74 L843.49,888.68 L838.61,891.47 L833.53,894.14 L828.24,896.67 L822.72,899.08 L816.96,901.35 L810.95,903.50 L804.67,905.53 L798.09,907.44 L791.20,909.22 L783.97,910.88 L776.35,912.43 L768.32,913.85 L759.81,915.16 L750.77,916.35 L741.12,917.43 L730.74,918.39 L719.51,919.24 L707.22,919.97 L693.58,920.59 L678.14,921.10 L660.13,921.49 L637.98,921.78 L607.49,921.94 L512.00,922.00 L416.51,921.94 L386.02,921.78 L363.87,921.49 L345.86,921.10 L330.42,920.59 L316.78,919.97 L304.49,919.24 L293.26,918.39 L282.88,917.43 L273.23,916.35 L264.19,915.16 L255.68,913.85 L247.65,912.43 L240.03,910.88 L232.80,909.22 L225.91,907.44 L219.33,905.53 L213.05,903.50 L207.04,901.35 L201.28,899.08 L195.76,896.67 L190.47,894.14 L185.39,891.47 L180.51,888.68 L175.83,885.74 L171.33,882.67 L167.01,879.45 L162.87,876.09 L158.89,872.59 L155.07,868.93 L151.41,865.11 L147.91,861.13 L144.55,856.99 L141.33,852.67 L138.26,848.17 L135.32,843.49 L132.53,838.61 L129.86,833.53 L127.33,828.24 L124.92,822.72 L122.65,816.96 L120.50,810.95 L118.47,804.67 L116.56,798.09 L114.78,791.20 L113.12,783.97 L111.57,776.35 L110.15,768.32 L108.84,759.81 L107.65,750.77 L106.57,741.12 L105.61,730.74 L104.76,719.51 L104.03,707.22 L103.41,693.58 L102.90,678.14 L102.51,660.13 L102.22,637.98 L102.06,607.49 L102.00,512.00 L102.06,416.51 L102.22,386.02 L102.51,363.87 L102.90,345.86 L103.41,330.42 L104.03,316.78 L104.76,304.49 L105.61,293.26 L106.57,282.88 L107.65,273.23 L108.84,264.19 L110.15,255.68 L111.57,247.65 L113.12,240.03 L114.78,232.80 L116.56,225.91 L118.47,219.33 L120.50,213.05 L122.65,207.04 L124.92,201.28 L127.33,195.76 L129.86,190.47 L132.53,185.39 L135.32,180.51 L138.26,175.83 L141.33,171.33 L144.55,167.01 L147.91,162.87 L151.41,158.89 L155.07,155.07 L158.89,151.41 L162.87,147.91 L167.01,144.55 L171.33,141.33 L175.83,138.26 L180.51,135.32 L185.39,132.53 L190.47,129.86 L195.76,127.33 L201.28,124.92 L207.04,122.65 L213.05,120.50 L219.33,118.47 L225.91,116.56 L232.80,114.78 L240.03,113.12 L247.65,111.57 L255.68,110.15 L264.19,108.84 L273.23,107.65 L282.88,106.57 L293.26,105.61 L304.49,104.76 L316.78,104.03 L330.42,103.41 L345.86,102.90 L363.87,102.51 L386.02,102.22 L416.51,102.06 L512.00,102.00 L607.49,102.06 L637.98,102.22 L660.13,102.51 L678.14,102.90 L693.58,103.41 L707.22,104.03 L719.51,104.76 L730.74,105.61 L741.12,106.57 L750.77,107.65 L759.81,108.84 L768.32,110.15 L776.35,111.57 L783.97,113.12 L791.20,114.78 L798.09,116.56 L804.67,118.47 L810.95,120.50 L816.96,122.65 L822.72,124.92 L828.24,127.33 L833.53,129.86 L838.61,132.53 L843.49,135.32 L848.17,138.26 L852.67,141.33 L856.99,144.55 L861.13,147.91 L865.11,151.41 L868.93,155.07 L872.59,158.89 L876.09,162.87 L879.45,167.01 L882.67,171.33 L885.74,175.83 L888.68,180.51 L891.47,185.39 L894.14,190.47 L896.67,195.76 L899.08,201.28 L901.35,207.04 L903.50,213.05 L905.53,219.33 L907.44,225.91 L909.22,232.80 L910.88,240.03 L912.43,247.65 L913.85,255.68 L915.16,264.19 L916.35,273.23 L917.43,282.88 L918.39,293.26 L919.24,304.49 L919.97,316.78 L920.59,330.42 L921.10,345.86 L921.49,363.87 L921.78,386.02 L921.94,416.51 Z" fill="#E5342B"/>
  <line x1="355" y1="355" x2="669" y2="669" stroke="#0A0A0A" stroke-width="82" stroke-linecap="round"/>
</svg>
